<?xml version="1.0" standalone="no"?>
<!DOCTYPE svg PUBLIC "-//W3C//DTD SVG 20010904//EN"
 "http://www.w3.org/TR/2001/REC-SVG-20010904/DTD/svg10.dtd">
<svg version="1.0" xmlns="http://www.w3.org/2000/svg"
 width="300.000000pt" height="210.000000pt" viewBox="0 0 300.000000 210.000000"
 preserveAspectRatio="xMidYMid meet">

<g transform="translate(0.000000,210.000000) scale(0.100000,-0.100000)"
fill="#000000" stroke="none">
<path d="M320 2092 c0 -17 161 -113 348 -207 106 -54 191 -99 189 -102 -3 -2
-60 24 -128 58 -68 34 -171 84 -229 110 -97 45 -102 46 -71 19 19 -16 141 -84
270 -150 130 -66 247 -129 261 -140 14 -10 -91 39 -233 111 -142 71 -263 129
-270 129 -31 -1 68 -61 284 -171 130 -66 245 -129 255 -141 l19 -22 -30 20
c-76 51 -482 250 -492 241 -10 -10 94 -71 241 -141 138 -66 296 -157 296 -171
0 -2 -26 12 -57 32 -62 39 -381 196 -423 207 l-25 7 25 -22 c14 -12 109 -64
213 -115 103 -52 187 -96 187 -99 0 -3 -23 6 -52 21 -63 32 -309 144 -316 144
-3 0 3 -9 14 -21 10 -11 96 -58 191 -105 95 -46 173 -86 173 -88 0 -2 -64 25
-141 61 -215 98 -194 65 31 -47 143 -71 202 -115 230 -170 26 -51 25 -91 -5
-235 -28 -137 -31 -242 -9 -335 28 -119 90 -198 279 -350 66 -53 126 -104 134
-113 18 -23 34 -21 57 4 10 12 72 64 136 116 140 112 200 177 239 258 56 117
62 227 23 410 -13 66 -25 139 -25 162 -1 97 62 161 248 252 126 62 188 99 180
107 -5 5 -153 -59 -246 -106 -34 -16 -61 -28 -61 -24 0 3 66 37 148 76 146 70
258 135 250 144 -5 5 -187 -75 -300 -132 -38 -19 -68 -32 -68 -29 0 3 84 47
188 100 179 90 252 134 224 135 -20 0 -390 -181 -448 -219 l-49 -32 35 31 c19
17 118 72 220 123 189 93 296 154 287 163 -8 8 -342 -150 -438 -207 -45 -27
-74 -40 -64 -29 10 11 124 74 254 140 216 109 315 169 284 170 -6 0 -127 -58
-269 -129 -141 -70 -246 -120 -233 -110 13 11 110 63 214 115 206 105 317 167
336 190 10 12 8 13 -13 5 -14 -5 -116 -55 -227 -111 -112 -56 -205 -99 -207
-97 -3 2 94 54 213 116 212 109 329 181 307 188 -20 7 -505 -226 -589 -282
-124 -82 -191 -167 -221 -277 -20 -75 -17 -129 11 -272 14 -69 25 -143 25
-164 0 -49 -24 -142 -51 -194 -60 -117 -287 -289 -362 -274 -46 9 -185 107
-250 175 -34 36 -70 87 -89 127 -45 96 -47 166 -13 348 25 128 27 153 17 210
-21 130 -101 241 -240 330 -39 26 -174 94 -299 152 -281 131 -293 136 -293
126z m1555 -1253 c-38 -74 -120 -156 -242 -241 -57 -40 -110 -77 -117 -82 -9
-6 -30 4 -67 31 -30 22 -83 60 -119 85 -36 26 -85 67 -110 91 -45 45 -117 153
-108 162 3 3 18 -19 33 -47 16 -29 54 -78 85 -108 68 -67 247 -190 276 -190
29 0 207 125 275 193 31 31 69 81 85 111 16 30 30 53 32 51 2 -1 -9 -27 -23
-56z m1 -59 c-49 -74 -99 -122 -236 -225 l-136 -102 -130 98 c-133 99 -223
187 -250 243 -14 31 -14 31 3 6 63 -87 107 -129 233 -224 78 -59 145 -106 149
-104 3 2 58 42 121 89 130 97 195 158 236 223 16 25 30 43 33 41 2 -3 -8 -23
-23 -45z m-681 -119 c22 -24 100 -90 174 -146 l135 -102 137 104 c129 98 173
138 227 208 19 25 21 26 11 5 -22 -45 -122 -141 -241 -231 -64 -49 -119 -93
-123 -99 -4 -6 -25 5 -53 28 -26 21 -92 73 -147 114 -97 74 -152 131 -189 193
l-18 30 23 -30 c13 -16 42 -50 64 -74z m145 -176 c36 -27 88 -68 116 -91 51
-43 52 -43 70 -23 10 11 63 54 118 96 56 42 128 101 161 132 l60 56 -55 -58
c-30 -33 -93 -88 -140 -125 -47 -36 -102 -81 -123 -101 -27 -26 -41 -33 -51
-26 -92 69 -206 165 -266 225 -45 45 -51 52 -15 19 33 -31 89 -78 125 -104z"/>
<path d="M0 80 l0 -80 80 0 c64 0 80 3 80 15 0 12 -13 15 -60 15 l-60 0 0 65
c0 58 -2 65 -20 65 -18 0 -20 -7 -20 -80z"/>
<path d="M210 80 l0 -80 85 0 c69 0 85 3 85 15 0 12 -14 15 -65 15 -58 0 -65
2 -65 20 0 16 7 20 35 20 24 0 35 5 35 15 0 10 -11 15 -35 15 -24 0 -35 5 -35
15 0 10 16 15 62 17 38 2 63 8 66 16 3 9 -18 12 -82 12 l-86 0 0 -80z"/>
<path d="M420 153 c2 -23 57 -147 67 -150 8 -3 23 18 37 49 l24 53 22 -53 c13
-28 28 -52 35 -52 7 0 26 36 43 80 27 73 28 80 12 80 -12 0 -22 -12 -30 -37
-19 -57 -26 -59 -46 -9 -24 58 -45 59 -65 4 -9 -24 -20 -43 -24 -43 -5 0 -15
19 -22 43 -11 30 -20 42 -34 42 -10 0 -19 -3 -19 -7z"/>
<path d="M730 80 c0 -73 2 -80 20 -80 18 0 20 7 20 80 0 73 -2 80 -20 80 -18
0 -20 -7 -20 -80z"/>
<path d="M854 146 c-3 -8 -4 -27 -2 -43 3 -27 5 -28 71 -31 58 -2 68 -6 65
-20 -2 -13 -16 -18 -56 -20 -32 -2 -52 1 -52 7 0 14 -27 14 -35 1 -15 -25 17
-40 84 -40 83 0 93 7 89 56 l-3 39 -67 3 c-54 2 -68 6 -68 19 0 13 11 15 70
11 62 -5 71 -3 68 11 -4 23 -155 29 -164 7z"/>
<path d="M1220 80 c0 -73 2 -80 20 -80 16 0 20 7 20 35 l0 35 55 0 55 0 0 -35
c0 -28 4 -35 20 -35 18 0 20 7 20 80 0 73 -2 80 -20 80 -16 0 -20 -7 -20 -30
0 -30 -1 -30 -55 -30 -54 0 -55 0 -55 30 0 23 -4 30 -20 30 -18 0 -20 -7 -20
-80z"/>
<path d="M1543 148 c-6 -7 -27 -43 -47 -81 -35 -62 -36 -67 -17 -67 11 0 25 9
31 20 16 29 95 28 119 -1 9 -12 25 -20 34 -18 14 3 9 17 -29 82 -46 76 -69 93
-91 65z m45 -53 c11 -24 10 -25 -18 -25 -33 0 -35 3 -20 31 14 26 25 24 38 -6z"/>
<path d="M1730 80 c0 -63 3 -80 14 -80 11 0 16 15 18 53 l3 52 30 -42 c17 -24
33 -43 36 -43 4 0 19 19 35 42 l29 42 3 -52 c3 -44 6 -52 23 -52 17 0 19 7 19
80 0 71 -2 80 -18 80 -11 0 -33 -20 -52 -46 l-33 -46 -33 38 c-18 22 -33 42
-34 47 0 4 -9 7 -20 7 -18 0 -20 -7 -20 -80z"/>
<path d="M2012 83 c3 -65 6 -78 21 -81 15 -3 17 6 17 77 0 75 -2 81 -20 81
-19 0 -21 -5 -18 -77z"/>
<path d="M2130 80 l0 -80 80 0 c63 0 80 3 80 15 0 10 -15 15 -57 17 l-58 3 -3
63 c-3 54 -6 62 -22 62 -18 0 -20 -7 -20 -80z"/>
<path d="M2310 145 c0 -10 11 -15 35 -15 l35 0 0 -65 c0 -58 2 -65 20 -65 18
0 20 7 20 65 l0 65 35 0 c24 0 35 5 35 15 0 12 -17 15 -90 15 -73 0 -90 -3
-90 -15z"/>
<path d="M2542 148 c-15 -15 -16 -102 -2 -129 9 -16 22 -19 88 -19 42 0 83 4
90 9 9 5 12 28 10 77 l-3 69 -85 3 c-58 2 -89 -1 -98 -10z m148 -68 l0 -51
-57 3 -58 3 -3 48 -3 47 60 0 61 0 0 -50z"/>
<path d="M2810 80 c0 -64 3 -80 15 -80 11 0 15 12 15 50 0 28 3 50 8 50 4 0
34 -23 67 -50 33 -28 65 -50 72 -50 10 0 13 22 13 80 0 73 -2 80 -20 80 -17 0
-20 -7 -20 -51 l0 -51 -59 51 c-83 72 -91 70 -91 -29z"/>
</g>
</svg>
