<?xml version="1.0" standalone="no"?>
<!DOCTYPE svg PUBLIC "-//W3C//DTD SVG 20010904//EN"
 "http://www.w3.org/TR/2001/REC-SVG-20010904/DTD/svg10.dtd">
<svg version="1.0" xmlns="http://www.w3.org/2000/svg"
 width="240.000000pt" height="191.000000pt" viewBox="0 0 240.000000 191.000000"
 preserveAspectRatio="xMidYMid meet">

<g transform="translate(0.000000,191.000000) scale(0.100000,-0.100000)"
fill="#000000" stroke="none">
<path d="M1809 1865 c-235 -44 -671 -236 -923 -406 -297 -199 -583 -488 -687
-691 -101 -198 -58 -351 109 -389 67 -16 149 -2 239 40 58 28 244 137 300 177
19 13 23 14 27 3 24 -88 31 -92 81 -48 l36 32 30 -36 c16 -19 45 -41 64 -47
64 -21 233 18 287 67 16 14 23 14 89 -1 122 -30 328 -109 329 -127 0 -10 -182
-39 -385 -59 -441 -45 -853 -131 -1121 -234 -160 -61 -244 -98 -244 -107 0
-22 105 -8 199 27 322 122 831 227 1232 255 231 16 353 45 378 90 13 24 13 29
-2 53 -22 33 -105 75 -241 122 -58 20 -106 40 -106 44 0 4 9 15 20 25 55 50
84 133 68 193 -18 66 -77 115 -182 152 -42 15 -48 19 -31 25 285 107 497 231
692 404 129 114 173 184 173 273 0 48 -21 90 -57 116 -76 52 -238 73 -374 47z
m298 -67 c60 -22 83 -48 83 -96 0 -71 -59 -148 -205 -271 -238 -198 -508 -328
-962 -461 -235 -69 -303 -62 -332 33 -15 49 -34 57 -39 17 -6 -36 28 -100 61
-117 46 -23 132 -27 228 -9 47 9 88 16 91 16 3 0 -1 -19 -9 -41 -7 -23 -11
-55 -8 -70 12 -55 139 -146 253 -179 23 -7 42 -16 42 -20 0 -13 -116 -40 -172
-40 -53 0 -56 1 -83 40 -35 50 -68 60 -99 31 l-22 -21 -13 35 c-17 49 -38 46
-145 -24 -223 -143 -308 -181 -407 -181 -121 0 -174 49 -166 156 9 124 112
286 303 478 236 236 466 399 769 542 399 188 661 246 832 182z m-663 -877 c72
-35 101 -75 93 -127 -7 -39 -53 -103 -98 -135 l-30 -21 -72 22 c-141 43 -267
119 -267 162 0 49 57 102 138 129 54 17 170 3 236 -30z"/>
</g>
</svg>
